P2
# 8-bit pgm gray
7 7
255
255 255   0   0   0 255 255
255   0 255 255 255   0 255
  0 255 255 255 255 255   0
  0 255 255 255 255 255   0
  0 255 255 255 255 255   0
255   0 255 255 255   0 255
255 255   0   0   0 255 255
